<svg xmlns="http://www.w3.org/2000/svg" xmlns:xlink="http://www.w3.org/1999/xlink" width="4000" zoomAndPan="magnify" viewBox="0 0 3000 2999.999989" height="4000" preserveAspectRatio="xMidYMid meet" version="1.0"><defs><clipPath id="329e856ea4"><path d="M 1813 1060 L 2944 1060 L 2944 2928.191406 L 1813 2928.191406 Z M 1813 1060 " clip-rule="nonzero"/></clipPath></defs><path fill="#ffffff" d="M 1361.957031 1482.761719 C 1469.882812 1482.761719 1557.796875 1394.859375 1557.796875 1286.953125 C 1557.796875 1108.859375 1415.753906 982.910156 1361.957031 941.585938 C 1340.960938 957.65625 1306.515625 986.847656 1272.402344 1026.535156 C 1201.871094 1108.859375 1166.117188 1196.429688 1166.117188 1286.953125 C 1166.117188 1394.859375 1254.03125 1482.761719 1361.957031 1482.761719 Z M 1361.957031 1482.761719 " fill-opacity="1" fill-rule="nonzero"/><path fill="#ffffff" d="M 2560.945312 118.015625 C 2560.945312 92.761719 2540.28125 72.097656 2515.019531 72.097656 L 2242.089844 72.097656 C 2216.832031 72.097656 2196.164062 92.761719 2196.164062 118.015625 L 2196.164062 363.347656 L 2560.617188 363.347656 L 2560.617188 118.015625 Z M 2560.945312 118.015625 " fill-opacity="1" fill-rule="nonzero"/><g clip-path="url(#329e856ea4)"><path fill="#ffffff" d="M 2619.996094 1060.972656 L 2137.445312 1060.972656 C 1958.992188 1060.972656 1813.996094 1205.941406 1813.996094 1384.363281 L 1813.996094 1663.808594 L 2138.429688 1387.972656 C 2220.441406 1318.113281 2344.769531 1327.625 2415.296875 1409.292969 C 2446.132812 1444.714844 2463.191406 1490.304688 2463.191406 1537.207031 C 2463.191406 1584.109375 2446.789062 1629.699219 2416.28125 1665.449219 L 1814.324219 2373.242188 L 1814.324219 2930.488281 L 2943.773438 2930.488281 L 2943.773438 1384.363281 C 2943.773438 1205.941406 2798.777344 1060.972656 2620.324219 1060.972656 Z M 2619.996094 1060.972656 " fill-opacity="1" fill-rule="nonzero"/></g><path fill="#ffffff" d="M 2573.085938 804.488281 L 2184.355469 804.488281 L 2184.355469 985.863281 L 2573.085938 985.863281 Z M 2573.085938 804.488281 " fill-opacity="1" fill-rule="nonzero"/><path fill="#ffffff" d="M 2358.21875 1458.160156 C 2314.589844 1407.652344 2237.5 1401.75 2186.652344 1445.042969 L 1632.917969 1916.027344 C 1659.816406 1930.460938 1682.78125 1951.453125 1699.839844 1977.363281 C 1726.082031 2017.703125 1735.59375 2066.246094 1726.082031 2113.476562 C 1716.570312 2161.035156 1689.339844 2202.359375 1648.992188 2229.910156 C 1608.644531 2257.132812 1560.421875 2267.300781 1512.527344 2258.445312 L 1075.902344 2178.089844 C 1055.566406 2174.480469 1042.117188 2154.800781 1045.722656 2134.46875 C 1049.332031 2114.132812 1069.015625 2100.683594 1089.355469 2104.292969 L 1525.976562 2184.648438 C 1584.039062 2195.472656 1640.792969 2156.769531 1652.273438 2098.71875 C 1663.753906 2041.320312 1626.359375 1984.25 1569.277344 1971.457031 L 1549.597656 1967.195312 L 1548.941406 1967.195312 L 937.796875 1831.082031 C 842.996094 1810.089844 746.222656 1807.792969 650.433594 1824.523438 C 554.644531 1841.25 464.761719 1876.015625 382.753906 1927.835938 L 56.351562 2142.011719 L 309.269531 2535.59375 L 604.179688 2341.425781 C 613.039062 2335.523438 623.863281 2333.882812 634.03125 2336.507812 L 1334.402344 2513.945312 C 1399.023438 2530.34375 1466.601562 2528.378906 1530.242188 2508.042969 C 1593.554688 2487.707031 1649.976562 2450.316406 1693.277344 2399.480469 L 2358.875 1616.90625 C 2398.238281 1570.660156 2397.910156 1504.082031 2358.21875 1458.164062 Z M 2358.21875 1458.160156 " fill-opacity="1" fill-rule="nonzero"/><path fill="#ffffff" d="M 1776.929688 286.597656 C 1784.144531 279.382812 1793.660156 275.121094 1803.828125 275.121094 L 2121.371094 275.121094 L 2121.371094 148.84375 L 1741.5 148.84375 L 1561.734375 334.484375 L 1648.007812 420.746094 Z M 1776.929688 286.597656 " fill-opacity="1" fill-rule="nonzero"/><path fill="#ffffff" d="M 2378.882812 729.707031 L 2434.652344 729.707031 L 2434.652344 438.457031 L 2322.789062 438.457031 L 2322.789062 729.707031 Z M 2378.882812 729.707031 " fill-opacity="1" fill-rule="nonzero"/></svg>