<svg id="Layer_1" data-name="Layer 1" xmlns="http://www.w3.org/2000/svg" viewBox="0 0 50 50"><path d="M36.73,29.61c-.95-1.62-1.86-3.25-2.81-4.86q-2.46-4.3-5-8.59c-1.05-1.84-2.1-3.68-3.18-5.49C25,9.33,23.36,9.3,22,8.92c-1.1-.27-2.28-.59-3.38-.85,0-.23-.24-1.38-.26-1.49a7.28,7.28,0,0,0-9.55-5.1,7.2,7.2,0,1,0,7.53,11.91.66.66,0,1,0-.95-.92A5.89,5.89,0,0,1,6.87,4.41c3.24-4,10.05-1.87,10.29,3.28-2.08-.49-4.09-1-6.15-1.52C10,5.89,9.71,7,9.51,7.81c-.42,1.38-.8,2.77-1.2,4.15a.22.22,0,0,0,.1.29,5.61,5.61,0,0,0,2.68,1c.17-.39.64-1.25.64-1.25a3.48,3.48,0,1,1,.46,4.41A.37.37,0,0,0,12,16.3a8.54,8.54,0,0,1-4.59-1c-.34.92-.54,1.9-.84,2.84-.27,1.17-1,2.42-.35,3.59,2.08,3.82,4.33,7.54,6.49,11.3,1,1.8,2.06,3.56,3.07,5.36,1.09,1.64,1.75,4.08,4,4.38,1.41.31,2.57-.59,3.72-1.25,1.86-1.09,3.75-2.14,5.6-3.24,1.5-.88,3-1.72,4.52-2.6,1.85-1,3.95-1.92,3.71-4.45A4.14,4.14,0,0,0,36.73,29.61Zm-12-6.91a.45.45,0,0,1,.45-.45h2.28a.45.45,0,0,1,.45.45v2.05a.45.45,0,0,1-.45.45H25.19a.45.45,0,0,1-.45-.45Zm-4.87-.82a.62.62,0,0,1,.62-.62h3.14a.62.62,0,0,1,.62.62V24.7a.62.62,0,0,1-.62.62H20.49a.62.62,0,0,1-.62-.62Zm-3.43,1.18a.38.38,0,0,1,.39-.39h2a.38.38,0,0,1,.39.39v1.77a.38.38,0,0,1-.39.39h-2a.38.38,0,0,1-.39-.39Zm-3.38-1.64H10.43V20h3.89l1.15,5.12H14ZM19,38.8a2,2,0,1,1,2-2A2,2,0,0,1,19,38.8Zm6,0a2,2,0,1,1,2-2A2,2,0,0,1,25,38.8Zm4.64-12.3c-.34,1.57-.69,3.13-1,4.7-.12.61-.25,1.21-.39,1.82,0,.36-.21,1-.52,1C23.8,34,20,34,16.05,34a.2.2,0,0,1-.23-.18c-.44-2.13-.94-4.24-1.36-6.37,0-.25-.46-1.24-.09-1.22H29.46C29.69,26.22,29.72,26.27,29.66,26.5Z" fill="#fff"/><polygon points="17.39 30.83 26.51 30.83 26.86 29.16 17.04 29.16 17.39 30.83" fill="#fff"/><path d="M5.16,21.85c-.79-1.58.89-4.94,1.22-6.76.1-.57,0-.49-.34-.78-.11-.1-.2-.09-.29,0C5,15.42,4.13,16.47,3.3,17.53c-1.15,1.33-.38,3.14-.23,4.7q1.31,9.18,2.69,18.35c.64,2.57,2.78,2.64,5.19,2.24,1.92-.31,3.81-.55,5.74-.84-2.78-4.82-5.58-9.63-8.34-14.46C7.27,25.64,6.1,23.8,5.16,21.85Z" fill="#fff"/></svg>