<svg id="Layer_1" data-name="Layer 1" xmlns="http://www.w3.org/2000/svg" viewBox="0 0 40 44"><path d="M18.25,33.1c-3.78,0-7.55,0-11.33,0a6.43,6.43,0,0,0-5,2.36C0,37.65.34,40.32.38,43H24.43c0-1.41.07-2.73,0-4A6.59,6.59,0,0,0,18.25,33.1Z" fill="#fff"/><path d="M12.43,31.46a7.53,7.53,0,0,0,7.67-7.65,7.68,7.68,0,1,0-15.35,0C4.65,28.29,8.82,31.8,12.43,31.46Z" fill="#fff"/><path d="M19.88,5.22,15.09,9.86a.6.6,0,0,0,0,.84.58.58,0,0,0,.42.18.61.61,0,0,0,.42-.16l4.79-4.64a.6.6,0,0,0-.83-.86Z" fill="#fff"/><path d="M20.64,12.41a.6.6,0,0,0,.43.18.54.54,0,0,0,.41-.17l4.79-4.64a.59.59,0,0,0-.82-.85l-4.79,4.64A.59.59,0,0,0,20.64,12.41Z" fill="#fff"/><path d="M24.32,4.4l-8.64,8.37a.59.59,0,0,0,.41,1,.58.58,0,0,0,.41-.17l8.65-8.37a.6.6,0,0,0,0-.84A.59.59,0,0,0,24.32,4.4Z" fill="#fff"/><path d="M35.21,1H15.93a4.47,4.47,0,0,0-4.46,4.47v9.69l.6,0a9.28,9.28,0,0,1,1.06.06V5.47a2.8,2.8,0,0,1,2.8-2.8H35.21A2.8,2.8,0,0,1,38,5.47V15.75a7.87,7.87,0,0,0-6.13,7.67A8,8,0,0,0,38,31.12v1.76H34.1A6.55,6.55,0,0,0,29,35.28c-1.61,1.8-1.69,3.9-1.64,6H25.7v.35c0,.43,0,.87,0,1.32h9.53a4.47,4.47,0,0,0,4.47-4.47V5.47A4.47,4.47,0,0,0,35.21,1Z" fill="#fff"/></svg>